Normalized EMG Linear Envelopes
nRows=198
nColumns=4

endheader
time	 med_gas_r	  soleus_r	 tib_ant_r	
1.87488	  0.122573	  0.114457	  0.034148	
1.93738	  0.121171	  0.118103	  0.034866	
1.99987	  0.116862	  0.122648	  0.035578	
2.06237	  0.112077	  0.125315	  0.035604	
2.12486	  0.110061	  0.130405	  0.035135	
2.18736	  0.110679	  0.139048	  0.034389	
2.24986	  0.113059	  0.150745	  0.034026	
2.31235	  0.115211	  0.162283	  0.034029	
2.37485	  0.116698	  0.160876	  0.034137	
2.43734	  0.119340	  0.146716	  0.033952	
2.49984	  0.120946	  0.135002	  0.033936	
2.56234	  0.119916	  0.130384	  0.034711	
2.62483	  0.114816	  0.131234	  0.036177	
2.68733	  0.107599	  0.135275	  0.037707	
2.74982	  0.101844	  0.140248	  0.038730	
2.81232	  0.101030	  0.142711	  0.038629	
2.87482	  0.106355	  0.140644	  0.037719	
2.93731	  0.115901	  0.135150	  0.036988	
2.99981	  0.124417	  0.128901	  0.036745	
3.0623	  0.128042	  0.125102	  0.037127	
3.1248	  0.127641	  0.122446	  0.037761	
3.1873	  0.123581	  0.119954	  0.038458	
3.24979	  0.118537	  0.117068	  0.038535	
3.31229	  0.113836	  0.117380	  0.037719	
3.37478	  0.111473	  0.123496	  0.036468	
3.43728	  0.111472	  0.133427	  0.035648	
3.49978	  0.110790	  0.139191	  0.036043	
3.56227	  0.110436	  0.135665	  0.037003	
3.62477	  0.112979	  0.126537	  0.037830	
3.68726	  0.117680	  0.118026	  0.038176	
3.74976	  0.122148	  0.110663	  0.037949	
3.81226	  0.122631	  0.104542	  0.037361	
3.87475	  0.120640	  0.102769	  0.036868	
3.93725	  0.117954	  0.104969	  0.037464	
3.99974	  0.113137	  0.109060	  0.038298	
4.06224	  0.106108	  0.114441	  0.038692	
4.12474	  0.102623	  0.120922	  0.038359	
4.18723	  0.104669	  0.126425	  0.037613	
4.24973	  0.111091	  0.126059	  0.036972	
4.31222	  0.119954	  0.121083	  0.035853	
4.37472	  0.126215	  0.115460	  0.034280	
4.43722	  0.125470	  0.110879	  0.032477	
4.49971	  0.119494	  0.108325	  0.030853	
4.56221	  0.111489	  0.110632	  0.029929	
4.6247	  0.106091	  0.119625	  0.031590	
4.6872	  0.105017	  0.136249	  0.039075	
4.7497	  0.108776	  0.162016	  0.056245	
4.81219	  0.119583	  0.188092	  0.083595	
4.87469	  0.140205	  0.202128	  0.113047	
4.93718	  0.171499	  0.200212	  0.131840	
4.99968	  0.217609	  0.189518	  0.141227	
5.06218	  0.269968	  0.202564	  0.147751	
5.12467	  0.297971	  0.265066	  0.154129	
5.18717	  0.301221	  0.371412	  0.162582	
5.24966	  0.310712	  0.483519	  0.174476	
5.31216	  0.331358	  0.563084	  0.190612	
5.37466	  0.345272	  0.572244	  0.210929	
5.43715	  0.360337	  0.526192	  0.231525	
5.49965	  0.372595	  0.455357	  0.248041	
5.56214	  0.377631	  0.407320	  0.259516	
5.62464	  0.388459	  0.401114	  0.272047	
5.68714	  0.393001	  0.413305	  0.290318	
5.74963	  0.390209	  0.394848	  0.309177	
5.81213	  0.389576	  0.333476	  0.328265	
5.87462	  0.387368	  0.271852	  0.346852	
5.93712	  0.406194	  0.241030	  0.361473	
5.99962	  0.423781	  0.228526	  0.369030	
6.06211	  0.415386	  0.220134	  0.372944	
6.12461	  0.400409	  0.223020	  0.372654	
6.1871	  0.374118	  0.241893	  0.376244	
6.2496	  0.349199	  0.255654	  0.377107	
6.3121	  0.338935	  0.251224	  0.368970	
6.37459	  0.337661	  0.241145	  0.364005	
6.43709	  0.351925	  0.244768	  0.364258	
6.49958	  0.363750	  0.261008	  0.356632	
6.56208	  0.373878	  0.286014	  0.345239	
6.62458	  0.377217	  0.333247	  0.337284	
6.68707	  0.364250	  0.376496	  0.332380	
6.74957	  0.358922	  0.377299	  0.325111	
6.81206	  0.356735	  0.348210	  0.321152	
6.87456	  0.351469	  0.342271	  0.326132	
6.93706	  0.357774	  0.364453	  0.335658	
6.99955	  0.357635	  0.401127	  0.336191	
7.06205	  0.358952	  0.429319	  0.324052	
7.12454	  0.373495	  0.445852	  0.315655	
7.18704	  0.373688	  0.450243	  0.322001	
7.24954	  0.364482	  0.480276	  0.329172	
7.31203	  0.349506	  0.514328	  0.336297	
7.37453	  0.326722	  0.510739	  0.347207	
7.43702	  0.319622	  0.507326	  0.361139	
7.49952	  0.315048	  0.506595	  0.370030	
7.56202	  0.319614	  0.508854	  0.372437	
7.62451	  0.335383	  0.528099	  0.373734	
7.68701	  0.356921	  0.564681	  0.371031	
7.7495	  0.381726	  0.596436	  0.365923	
7.812	  0.388903	  0.580441	  0.358651	
7.8745	  0.381216	  0.528829	  0.344718	
7.93699	  0.353674	  0.461343	  0.324056	
7.99949	  0.333259	  0.424827	  0.303905	
8.06198	  0.328893	  0.437065	  0.294238	
8.12448	  0.331156	  0.451618	  0.302096	
8.18698	  0.350966	  0.434727	  0.317661	
8.24947	  0.362860	  0.429532	  0.332265	
8.31197	  0.368808	  0.481226	  0.341597	
8.37446	  0.378132	  0.561403	  0.340110	
8.43696	  0.376828	  0.583354	  0.327417	
8.49946	  0.378341	  0.533252	  0.308482	
8.56195	  0.368981	  0.492673	  0.283876	
8.62445	  0.358724	  0.492290	  0.260779	
8.68694	  0.355925	  0.506410	  0.249130	
8.74944	  0.357096	  0.521333	  0.248366	
8.81194	  0.366754	  0.509551	  0.251401	
8.87443	  0.365442	  0.495446	  0.253505	
8.93693	  0.369524	  0.504974	  0.260856	
8.99942	  0.371166	  0.562441	  0.263143	
9.06192	  0.372927	  0.635615	  0.256683	
9.12442	  0.372482	  0.679138	  0.250864	
9.18691	  0.353507	  0.671820	  0.250953	
9.24941	  0.340942	  0.600881	  0.259198	
9.3119	  0.330240	  0.476123	  0.266675	
9.3744	  0.325672	  0.362176	  0.269725	
9.4369	  0.331040	  0.295396	  0.270600	
9.49939	  0.342603	  0.284199	  0.271304	
9.56189	  0.358051	  0.309869	  0.263470	
9.62438	  0.351906	  0.324565	  0.246316	
9.68688	  0.346749	  0.335503	  0.224387	
9.74938	  0.344574	  0.368651	  0.206770	
9.81187	  0.340392	  0.396135	  0.200848	
9.87437	  0.344127	  0.395477	  0.204013	
9.93686	  0.333419	  0.378752	  0.208560	
9.99936	  0.330374	  0.346020	  0.210630	
10.0619	  0.337584	  0.295921	  0.205027	
10.1244	  0.333115	  0.269175	  0.194239	
10.1868	  0.326232	  0.275996	  0.185446	
10.2493	  0.309567	  0.303415	  0.177979	
10.3118	  0.294868	  0.314108	  0.171832	
10.3743	  0.297793	  0.291957	  0.169103	
10.4368	  0.297098	  0.254839	  0.165932	
10.4993	  0.300620	  0.225295	  0.159974	
10.5618	  0.313624	  0.202978	  0.153327	
10.6243	  0.306855	  0.182624	  0.144902	
10.6868	  0.292651	  0.160530	  0.138837	
10.7493	  0.286081	  0.141605	  0.133447	
10.8118	  0.264310	  0.131506	  0.127193	
10.8743	  0.246795	  0.127210	  0.119463	
10.9368	  0.245834	  0.122569	  0.107553	
10.9993	  0.250874	  0.117638	  0.097754	
11.0618	  0.235252	  0.115653	  0.091494	
11.1243	  0.215011	  0.118932	  0.083686	
11.1868	  0.215665	  0.127927	  0.075336	
11.2493	  0.234234	  0.137923	  0.069440	
11.3118	  0.237581	  0.140701	  0.069121	
11.3743	  0.220158	  0.135227	  0.068950	
11.4368	  0.216922	  0.124964	  0.062469	
11.4993	  0.239526	  0.116389	  0.055954	
11.5618	  0.262068	  0.112382	  0.053540	
11.6243	  0.267153	  0.112210	  0.053258	
11.6868	  0.272786	  0.112968	  0.049741	
11.7492	  0.274586	  0.113131	  0.045293	
11.8117	  0.261633	  0.111024	  0.042197	
11.8742	  0.256803	  0.108664	  0.041547	
11.9367	  0.262934	  0.110940	  0.042807	
11.9992	  0.259735	  0.117923	  0.045230	
12.0617	  0.264133	  0.126031	  0.049214	
12.1242	  0.277843	  0.129925	  0.053416	
12.1867	  0.280333	  0.126577	  0.054596	
12.2492	  0.291301	  0.121224	  0.051681	
12.3117	  0.300151	  0.118694	  0.047849	
12.3742	  0.296636	  0.119533	  0.043392	
12.4367	  0.295019	  0.120902	  0.039814	
12.4992	  0.279673	  0.119224	  0.037431	
12.5617	  0.267092	  0.118303	  0.036333	
12.6242	  0.262831	  0.118815	  0.037397	
12.6867	  0.252247	  0.121448	  0.039229	
12.7492	  0.254349	  0.125210	  0.041013	
12.8117	  0.256975	  0.126174	  0.041419	
12.8742	  0.249489	  0.122842	  0.040246	
12.9367	  0.251544	  0.118501	  0.038864	
12.9992	  0.251603	  0.115822	  0.037198	
13.0617	  0.251159	  0.115289	  0.036225	
13.1242	  0.265269	  0.116009	  0.037084	
13.1867	  0.271580	  0.118846	  0.039254	
13.2492	  0.271120	  0.123511	  0.041591	
13.3116	  0.284424	  0.126676	  0.044154	
13.3741	  0.298064	  0.125199	  0.045932	
13.4366	  0.310703	  0.121109	  0.046544	
13.4991	  0.315934	  0.116760	  0.046128	
13.5616	  0.302784	  0.112521	  0.044779	
13.6241	  0.296848	  0.106771	  0.043889	
13.6866	  0.308465	  0.102316	  0.042858	
13.7491	  0.303478	  0.103682	  0.042202	
13.8116	  0.279220	  0.109982	  0.042318	
13.8741	  0.250406	  0.116099	  0.041594	
13.9366	  0.221775	  0.121332	  0.040393	
13.9991	  0.219572	  0.125841	  0.039028	
14.0616	  0.248875	  0.133420	  0.037900	
14.1241	  0.277636	  0.144492	  0.038086	
14.1866	  0.281606	  0.154894	  0.039073	
